<?xml version="1.0" encoding="UTF-8"?>
<svg id="katman_1" xmlns="http://www.w3.org/2000/svg" version="1.1" viewBox="0 0 659 108">
  <!-- Generator: Adobe Illustrator 29.2.1, SVG Export Plug-In . SVG Version: 2.1.0 Build 116)  -->
  <defs>
    <style>
      .st0 {
        display: none;
      }

      .st1, .st2 {
        fill-rule: evenodd;
      }

      .st2 {
        fill: none;
        stroke: #000;
        stroke-miterlimit: 10;
        stroke-width: .2px;
      }
    </style>
  </defs>
  <path class="st0" d="M.5,1.2h23.6l16.2,39.5h.8L57.4,1.2h23.6v69.8h-18.5V30.6h-.5l-15.5,39.8h-11.2l-15.5-40.1h-.5v40.6H.5V1.2ZM108.1,71h-20.5L110.7,1.2h25.9l23,69.8h-20.5l-15.3-50.6h-.5l-15.3,50.6ZM104.3,43.5h38.5v14.2h-38.5v-14.2ZM201.3,23c-.2-2.3-1-4-2.6-5.3-1.5-1.3-3.8-1.9-6.9-1.9s-3.6.2-4.8.7c-1.2.5-2.1,1.1-2.7,1.9-.6.8-.9,1.7-.9,2.7,0,.8.1,1.6.4,2.3.4.7.9,1.3,1.7,1.8.8.5,1.8,1,3,1.4,1.2.4,2.6.8,4.3,1.2l5.7,1.2c3.9.8,7.2,1.9,9.9,3.2,2.8,1.3,5,2.9,6.8,4.7,1.8,1.8,3,3.8,3.9,6.1.8,2.2,1.3,4.7,1.3,7.4,0,4.6-1.2,8.5-3.4,11.7-2.3,3.2-5.5,5.6-9.8,7.3-4.2,1.7-9.3,2.5-15.2,2.5s-11.4-.9-15.9-2.7c-4.5-1.8-8-4.6-10.5-8.3-2.5-3.8-3.7-8.5-3.8-14.4h18c.1,2.1.6,3.9,1.6,5.4,1,1.5,2.3,2.6,4,3.3,1.8.8,3.8,1.1,6.2,1.1s3.7-.2,5.1-.8c1.4-.5,2.4-1.2,3.1-2.1.7-.9,1.1-1.9,1.1-3,0-1.1-.4-2-1.1-2.8-.7-.8-1.8-1.5-3.3-2.2-1.5-.7-3.6-1.3-6.2-1.8l-7-1.5c-6.2-1.3-11.1-3.6-14.6-6.7-3.5-3.2-5.3-7.5-5.3-12.9,0-4.4,1.2-8.3,3.5-11.6,2.4-3.3,5.7-5.9,10-7.8,4.3-1.9,9.2-2.8,14.7-2.8s10.5.9,14.6,2.8c4.1,1.9,7.3,4.5,9.5,8,2.2,3.4,3.4,7.4,3.4,12h-18.1ZM227.6,71V1.2h19v28.2h1l21-28.2h22.1l-23.6,31.1,24.1,38.7h-22.6l-15.7-26.2-6.3,8.2v18h-19ZM336.4,61.5V11h15.3v50.5h-15.3ZM318.9,43.9v-15.3h50.5v15.3h-50.5ZM399.1,16.5V1.2h60.7v15.3h-21v54.5h-18.7V16.5h-21ZM466.9,71V1.2h50.3v15.3h-31.4v12h28.8v15.3h-28.8v12h31.2v15.3h-50.2ZM546.9,1.2l11.5,20.3h.5l11.6-20.3h21.1l-20.9,34.9,21.7,34.9h-21.7l-11.9-20.7h-.5l-11.9,20.7h-21.5l21.4-34.9-20.7-34.9h21.3ZM597.9,16.5V1.2h60.7v15.3h-21v54.5h-18.7V16.5h-21Z"/>
  <g class="st0">
    <path d="M1.9,34.2c0-11.6,8.1-22.5,25-22.5s8.1.9,11.3.9,3.2-.3,4.4-1h.2l3,13.5h-.2c-5.3-8.9-11.6-12.7-19.1-12.7-11.6,0-17,10.2-17,20.6s7.5,22,20.7,22,14.2-3.2,17.3-9.3l.8.3c-3.5,6.5-10,10.7-20.5,10.7-17.3,0-26-11.2-26-22.5Z"/>
    <path d="M50.2,34.4c0-13.6,10.3-22.7,26.7-22.7s26.5,8.8,26.5,21.7-10.3,23.4-26.4,23.4-26.7-8.9-26.7-22.4ZM77.8,56c10.8,0,18-8.1,18-20.3s-8.2-23.2-19.9-23.2-18.2,8-18.2,19.9,8,23.7,20.1,23.7Z"/>
    <path d="M107.9,34.2c0-11.6,8.1-22.5,25-22.5s8.1.9,11.3.9,3.2-.3,4.4-1h.2l3,13.5h-.2c-5.3-8.9-11.6-12.7-19.1-12.7-11.6,0-17,10.2-17,20.6s7.5,22,20.7,22,14.2-3.2,17.3-9.3l.8.3c-3.5,6.5-10,10.7-20.5,10.7-17.3,0-26-11.2-26-22.5Z"/>
    <path d="M166.6,55.9c4.5-.6,6.4-2.7,6.4-7.6V13.2h-4.9c-6.9,0-11.4,4.4-15.1,11.3h-.3l2.6-12.7c6.5.5,15.6.5,18.7.5h4.9c3.5,0,12.2,0,18.7-.5l2.6,12.7h-.3c-3.6-6.7-8.2-11.3-15.1-11.3h-4.9v35.1c0,5,2.2,6.9,6.4,7.6v.2h-19.6v-.2Z"/>
    <path d="M198.9,47.9l14.6-33.6c2-.9,4.1-1.7,5.7-2.6h.3l15.6,36.5c1.6,3.6,3.5,6.9,8.2,7.7v.2h-20.3v-.2c4.1-.5,5.9-2.1,5.9-4.3s-.3-1.9-.8-2.9l-4-9.3h-20.3l-3.7,8.5c-.5,1.1-.7,2.1-.7,2.9,0,2.6,2.1,4.4,5.9,5.1v.2h-16v-.2c4.2-.7,7.5-3.4,9.5-8ZM223.8,38.5l-9.6-22.4h-.2l-9.7,22.4h19.6Z"/>
    <path d="M240.7,55.9c4.2-.6,6.1-2.7,6.1-7.6v-28.2c0-4.8-1.9-6.9-6.1-7.6v-.2h19v.2c-4.1.6-6.2,2.6-6.2,7.6v28.2c0,5,2.1,6.9,6.2,7.6v.2h-19v-.2Z"/>
    <path d="M263.1,55.9c4.2-.6,6.1-2.7,6.1-7.6v-28.2c0-4.8-1.9-6.9-6.1-7.6v-.2h19.5v.2c-4.4.6-6.6,2.6-6.6,7.6v26.9c0,7.2,2.9,8.2,8.6,8.2h4.3c7.7,0,11.6-5.1,14.6-12.1h.2l-2.1,12.9h-38.5v-.2Z"/>
    <path d="M334.8,30.7c-2.6-3.5-4.3-6.7-4.3-9.8,0-6.1,6.4-9.2,13.8-9.2s10.4,2.1,10.4,6.1-5.3,7-13.2,10.9c.8,1.1,1.7,2.2,2.7,3.4l6.7,7.5c2.2,2.4,4.4,4.8,6.6,7,3.9-3.7,6.6-8.4,6.7-12.4.2-2.9-5-2.4-5-5.8s1.5-2.9,3.7-2.9,4.1,1.4,4.1,3.7-.6,4.7-1.6,7.2c-1.5,3.9-4,7.8-7.2,11.1,4.2,4.1,8.6,7.3,12.8,7.3s3.2-.5,4.9-1.6l.3.3c-3.2,2.4-6.5,3.3-9.6,3.3-4.4,0-8.6-2.2-12.8-5.6-4.7,3.4-10.3,5.6-16.4,5.6-10.7,0-16-4.9-16-11.2s4.2-10.6,13.4-14.9ZM335.4,31.5c-4.7,2.5-7,6.8-7,11.1,0,6.2,4.9,11.2,13.3,11.2s7.7-1.3,11-3.4c-2.5-2.2-5.1-4.8-7.6-7.7l-6.8-7.6c-1.1-1.2-2.1-2.4-3-3.6ZM341,28.1c6.1-3.1,9.8-6.3,9.8-10.2s-2.9-5.4-6.9-5.4-7.2,2-7.2,5.9,1.7,5.9,4.3,9.6Z"/>
    <path d="M399.9,55.9c4.2-.6,6.1-2.7,6.1-7.6v-28.2c0-4.8-1.9-6.9-6.1-7.6v-.2h11.2l20.7,36.7h.3l20.9-36.7h10.5v.2c-4,.6-6.1,2.6-6.1,7.6v28.2c0,5,2.1,6.9,6.1,7.6v.2h-19v-.2c4.2-.6,6.2-2.7,6.2-7.6v-29h-.4l-21.4,37.4h-.3l-21-37.4h-.3v29c0,5,2.1,6.9,6.1,7.6v.2h-13.3v-.2Z"/>
    <path d="M467,34.4c0-13.6,10.3-22.7,26.7-22.7s26.5,8.8,26.5,21.7-10.3,23.4-26.4,23.4-26.7-8.9-26.7-22.4ZM494.7,56c10.8,0,18-8.1,18-20.3s-8.2-23.2-19.9-23.2-18.2,8-18.2,19.9,8,23.7,20.1,23.7Z"/>
    <path d="M549.6,46l-9.6-12.4c1.2,0,2.5.1,3.3.1,9.1,0,13.7-4.4,13.7-10.8s-4.1-10.2-11.6-10.2-8.9,2.2-8.9,6.9v28.7c0,5,2.1,6.9,6.2,7.6v.2h-19v-.2c4.2-.6,6.1-2.7,6.1-7.6v-28.2c0-4.8-1.8-6.9-6.1-7.6v-.2h7.9c7.2,0,9.6-.4,14.1-.4,12.3,0,18.8,4.4,18.8,10.9s-7.1,11.7-19.7,11.7-2.2,0-3-.1c1.5,1,3.7,1.6,5.9,1.6s1.2,0,1.8-.1l7.1,9c4.9,5.8,8.6,10.7,13.8,10.7s1.4,0,2-.2v.4c-2.4.8-4.5,1.1-6.5,1.1-7.1,0-10.9-4-16.5-10.8Z"/>
    <path d="M570.6,55.9c4.2-.6,6.1-2.7,6.1-7.6v-28.2c0-4.8-1.9-6.9-6.1-7.6v-.2h21.4c2.5,0,7.5,0,13.8-.6l2.5,12.2h-.2c-3.2-6.6-7.8-10.8-14.4-10.8h-2.6c-5.2,0-7.5,2.2-7.5,6.5v12.9h6c5.9,0,8.6-2,9.3-6.4h.2v13.7h-.2c-.8-4.2-3.2-6.4-9.3-6.4h-6v13.6c0,7.2,2.9,8.2,8.6,8.2h3.9c7.7,0,11.4-5.1,14.5-12h.2l-2.2,12.9h-38v-.2Z"/>
  </g>
  <g>
    <g>
      <path class="st2" d="M417.5,47.6c-2.9,14-1.3,25.1,5.5,33.4,15.4,18.8,49.6,21.7,62.1,1.4,37.3-60.7-54.8-96.1-67.6-34.8h0Z"/>
      <path class="st1" d="M455.4,52.7c-2.5-1.9-7.4-19.6-8-29.3-.2-3.5,9.5-3.3,15.7-2,3.9.8-7.6,31.3-7.7,31.2h0Z"/>
      <path class="st1" d="M457.4,53.7c-.8-3.1,6.5-19.9,12.1-27.7,2-2.8,9.4,3.7,13.3,8.8,2.5,3.2-25.3,19.1-25.4,19h0Z"/>
      <path class="st1" d="M458.3,55.8c1.3-2.9,17.4-11.1,26.6-13.5,3.3-.9,4.9,9,4.8,15.4,0,4.1-31.4-1.8-31.4-1.9h0Z"/>
      <path class="st1" d="M457.7,58c2.8-1.4,20.3,2.9,28.9,7,3.1,1.5-1.8,10.2-5.9,15-2.6,3.1-23.1-21.9-23-22h0Z"/>
      <path class="st1" d="M455.9,59.4c3,.8,13.9,15.5,17.9,24.2,1.5,3.2-7.7,6.6-13.9,7.7-3.9.7-4.2-32-4-32h0Z"/>
      <path class="st1" d="M453.6,59.2c1.8,2.5,1.1,21-1.3,30.3-.9,3.4-10.1,0-15.5-3.1-3.5-2,16.7-27.4,16.8-27.2h0Z"/>
      <path class="st1" d="M452,57.6c-.2,3.2-12.2,16.8-19.9,22.6-2.7,2.1-7.8-6.5-10-12.5-1.4-3.8,29.9-10.2,29.9-10h0Z"/>
      <path class="st1" d="M451.8,55.3c-2.1,2.3-19.9,5-29.3,4.4-3.4-.2-2-10.1.1-16.2,1.3-3.9,29.3,11.7,29.2,11.8h0Z"/>
      <path class="st1" d="M453,53.3c-3.1.4-18.4-9.2-25.3-15.8-2.5-2.4,4.8-9.1,10.2-12.4,3.4-2.2,15.3,28.2,15.2,28.2h0Z"/>
    </g>
    <g>
      <path d="M165.1,24.8v-3.3c0-15.3,11.7-22.4,24.6-22.4s5.4.2,8.1.7v18.1c-.8-.1-1.8-.2-2.8-.2-3.7,0-7.7,1.3-7.7,5.9v1.2h10.4v19h-10.4v39.9h-22.3v-39.9"/>
      <path d="M266.1,83.7h-21.6l-.7-5.2c-3.8,4.8-10.8,7.2-16.4,7.2-17.1,0-26.9-13.2-27.1-31.5.2-18.3,10-31.5,27.1-31.5s12.6,2.4,16.4,7.2l.6-5.2h21.7v58.9ZM246.7,54.3c-.1-7.9-5.5-13.7-12.7-13.7s-12.8,5.1-12.8,13.7,5.5,13.7,12.8,13.7,12.6-5.8,12.7-13.7Z"/>
      <path d="M279.3,89.6c7.4,0,12.4-1.3,14.6-8.5l-21.4-56.3h24.4l8.6,31.1,8.7-31.1h24.4l-22,58.9c-8.2,21.8-20.5,24.4-37.2,24.4v-18.5Z"/>
      <path d="M344.9,83.7V24.8h21.8l.5,5.1c2.5-4.1,7.4-7.1,14.3-7.1,13.3,0,21.9,7.3,21.9,23.8v37.1h-22.3v-34.2c0-5.3-2.7-7.4-7.1-7.4s-6.8,4.4-6.8,9.2v32.4h-22.3Z"/>
      <path d="M193.9,40.4"/>
      <path d="M182.5,59.1s.5.4.7.6h0s-.7-.4-.7-.4h-.1c0-.1,0-.2,0-.2Z"/>
      <polygon points="190.9 1.3 191.3 1.9 191.3 1.8 190.9 1.2 190.9 1.3"/>
      <path class="st1" d="M403.5,83.8"/>
    </g>
  </g>
</svg>